G04 #@! TF.GenerationSoftware,KiCad,Pcbnew,7.0.1-3b83917a11~172~ubuntu22.04.1*
G04 #@! TF.CreationDate,2023-04-09T19:02:09-04:00*
G04 #@! TF.ProjectId,magloop_pico,6d61676c-6f6f-4705-9f70-69636f2e6b69,1.0*
G04 #@! TF.SameCoordinates,Original*
G04 #@! TF.FileFunction,Soldermask,Bot*
G04 #@! TF.FilePolarity,Negative*
%FSLAX46Y46*%
G04 Gerber Fmt 4.6, Leading zero omitted, Abs format (unit mm)*
G04 Created by KiCad (PCBNEW 7.0.1-3b83917a11~172~ubuntu22.04.1) date 2023-04-09 19:02:09*
%MOMM*%
%LPD*%
G01*
G04 APERTURE LIST*
G04 Aperture macros list*
%AMRoundRect*
0 Rectangle with rounded corners*
0 $1 Rounding radius*
0 $2 $3 $4 $5 $6 $7 $8 $9 X,Y pos of 4 corners*
0 Add a 4 corners polygon primitive as box body*
4,1,4,$2,$3,$4,$5,$6,$7,$8,$9,$2,$3,0*
0 Add four circle primitives for the rounded corners*
1,1,$1+$1,$2,$3*
1,1,$1+$1,$4,$5*
1,1,$1+$1,$6,$7*
1,1,$1+$1,$8,$9*
0 Add four rect primitives between the rounded corners*
20,1,$1+$1,$2,$3,$4,$5,0*
20,1,$1+$1,$4,$5,$6,$7,0*
20,1,$1+$1,$6,$7,$8,$9,0*
20,1,$1+$1,$8,$9,$2,$3,0*%
G04 Aperture macros list end*
%ADD10R,1.600000X1.600000*%
%ADD11O,1.600000X1.600000*%
%ADD12RoundRect,0.250000X0.600000X-0.600000X0.600000X0.600000X-0.600000X0.600000X-0.600000X-0.600000X0*%
%ADD13C,1.700000*%
%ADD14C,1.600000*%
%ADD15R,1.905000X2.000000*%
%ADD16O,1.905000X2.000000*%
%ADD17C,2.000000*%
%ADD18C,1.524000*%
%ADD19C,2.100000*%
%ADD20C,3.251200*%
%ADD21C,1.397000*%
%ADD22C,2.082800*%
%ADD23C,3.126000*%
G04 APERTURE END LIST*
D10*
X169418000Y-56261000D03*
D11*
X177038000Y-56261000D03*
D10*
X178562000Y-62992000D03*
D11*
X170942000Y-62992000D03*
D10*
X182118000Y-119888000D03*
D11*
X182118000Y-127508000D03*
D12*
X125095000Y-144516500D03*
D13*
X125095000Y-141976500D03*
X127635000Y-144516500D03*
X127635000Y-141976500D03*
X130175000Y-144516500D03*
X130175000Y-141976500D03*
X132715000Y-144516500D03*
X132715000Y-141976500D03*
D14*
X136398000Y-96647000D03*
X136398000Y-99187000D03*
X136398000Y-101727000D03*
X136398000Y-104267000D03*
X136398000Y-106807000D03*
X136398000Y-109347000D03*
X136398000Y-111887000D03*
X136398000Y-114427000D03*
X136398000Y-116967000D03*
X136398000Y-119507000D03*
X156718000Y-119507000D03*
X156718000Y-116967000D03*
X156718000Y-114427000D03*
X156718000Y-111887000D03*
X156718000Y-109347000D03*
X156718000Y-106807000D03*
X156718000Y-104267000D03*
X156718000Y-101727000D03*
X156718000Y-99187000D03*
X156718000Y-96647000D03*
D10*
X178825000Y-97765000D03*
D11*
X178825000Y-105385000D03*
D10*
X124625000Y-76775000D03*
D14*
X124625000Y-74775000D03*
D15*
X131445000Y-72924000D03*
D16*
X133985000Y-72924000D03*
X136525000Y-72924000D03*
D10*
X143189888Y-76581000D03*
D14*
X145189888Y-76581000D03*
D10*
X126177113Y-81915000D03*
D14*
X124177113Y-81915000D03*
D17*
X133477000Y-53706000D03*
D12*
X148966000Y-144516500D03*
D13*
X148966000Y-141976500D03*
X151506000Y-144516500D03*
X151506000Y-141976500D03*
X154046000Y-144516500D03*
X154046000Y-141976500D03*
D14*
X96520000Y-90678000D03*
X96520000Y-93218000D03*
X96520000Y-95758000D03*
X96520000Y-98298000D03*
X96520000Y-100838000D03*
X96520000Y-103378000D03*
X96520000Y-105918000D03*
X96520000Y-108458000D03*
X96520000Y-110998000D03*
X96520000Y-113538000D03*
X96520000Y-116078000D03*
X96520000Y-118618000D03*
X96520000Y-121158000D03*
X96520000Y-123698000D03*
X96520000Y-126238000D03*
X96520000Y-128778000D03*
X96520000Y-131318000D03*
X96520000Y-133858000D03*
X96520000Y-136398000D03*
X96520000Y-138938000D03*
X114300000Y-138938000D03*
X114300000Y-136398000D03*
X114300000Y-133858000D03*
X114300000Y-131318000D03*
X114300000Y-128778000D03*
X114300000Y-126238000D03*
X114300000Y-123698000D03*
X114300000Y-121158000D03*
X114300000Y-118618000D03*
X114300000Y-116078000D03*
X114300000Y-113538000D03*
X114300000Y-110998000D03*
X114300000Y-108458000D03*
X114300000Y-105918000D03*
X114300000Y-103378000D03*
X114300000Y-100838000D03*
X114300000Y-98298000D03*
X114300000Y-95758000D03*
X114300000Y-93218000D03*
D18*
X114300000Y-90678000D03*
D10*
X95758000Y-67310000D03*
D14*
X97758000Y-67310000D03*
D19*
X124225000Y-111250000D03*
X121725000Y-111250000D03*
D14*
X113025000Y-72650000D03*
X110485000Y-72650000D03*
X107945000Y-72650000D03*
X105405000Y-72650000D03*
X102865000Y-72650000D03*
X100325000Y-72650000D03*
X97785000Y-72650000D03*
X95245000Y-72650000D03*
X95245000Y-85350000D03*
X97785000Y-85350000D03*
X100325000Y-85350000D03*
X102865000Y-85350000D03*
X105405000Y-85350000D03*
X107945000Y-85350000D03*
X110485000Y-85350000D03*
X113025000Y-85350000D03*
D12*
X167640000Y-144526000D03*
D13*
X167640000Y-141986000D03*
X170180000Y-144526000D03*
X170180000Y-141986000D03*
X172720000Y-144526000D03*
X172720000Y-141986000D03*
D20*
X103233416Y-54309118D03*
X115933416Y-54309118D03*
D21*
X106027416Y-56849118D03*
X107043416Y-58627118D03*
X108059416Y-56849118D03*
X109075416Y-58627118D03*
X110091416Y-56849118D03*
X111107416Y-58627118D03*
X112123416Y-56849118D03*
X113139416Y-58627118D03*
D22*
X101455416Y-57738118D03*
X117711416Y-57738118D03*
D17*
X153924000Y-56007000D03*
D23*
X157224000Y-59307000D03*
X150624000Y-59307000D03*
X157224000Y-52707000D03*
X150624000Y-52707000D03*
D19*
X122941000Y-102338000D03*
X122941000Y-99838000D03*
X118388000Y-69601000D03*
X120888000Y-69601000D03*
X175411000Y-85512500D03*
X177911000Y-85512500D03*
M02*
