M48
; DRILL file {KiCad 7.0.1-3b83917a11~172~ubuntu22.04.1} date Sun 09 Apr 2023 07:02:13 PM EDT
; FORMAT={-:-/ absolute / inch / decimal}
; #@! TF.CreationDate,2023-04-09T19:02:13-04:00
; #@! TF.GenerationSoftware,Kicad,Pcbnew,7.0.1-3b83917a11~172~ubuntu22.04.1
; #@! TF.FileFunction,Plated,1,2,PTH
FMAT,2
INCH
; #@! TA.AperFunction,Plated,PTH,ViaDrill
T1C0.0197
; #@! TA.AperFunction,Plated,PTH,ComponentDrill
T2C0.0300
; #@! TA.AperFunction,Plated,PTH,ComponentDrill
T3C0.0315
; #@! TA.AperFunction,Plated,PTH,ComponentDrill
T4C0.0350
; #@! TA.AperFunction,Plated,PTH,ComponentDrill
T5C0.0394
; #@! TA.AperFunction,Plated,PTH,ComponentDrill
T6C0.0433
; #@! TA.AperFunction,Plated,PTH,ComponentDrill
T7C0.0461
; #@! TA.AperFunction,Plated,PTH,ComponentDrill
T8C0.0620
; #@! TA.AperFunction,Plated,PTH,ComponentDrill
T9C0.0831
%
G90
G05
T1
X3.57Y-2.935
X3.57Y-4.24
X3.58Y-4.835
X3.61Y-2.24
X3.62Y-5.565
X3.71Y-2.49
X3.72Y-2.33
X3.795Y-3.005
X3.7992Y-3.3012
X3.84Y-2.04
X3.85Y-5.795
X3.88Y-4.5
X3.885Y-5.075
X3.91Y-2.775
X3.92Y-2.465
X3.935Y-3.05
X3.965Y-2.525
X3.98Y-4.07
X3.9823Y-3.565
X4.015Y-4.37
X4.075Y-2.63
X4.075Y-4.715
X4.095Y-4.455
X4.1Y-2.96
X4.105Y-3.76
X4.11Y-5.58
X4.115Y-4.2
X4.13Y-4.825
X4.195Y-3.22
X4.225Y-3.76
X4.23Y-2.135
X4.27Y-4.685
X4.28Y-4.36
X4.285Y-2.99
X4.3553Y-3.1211
X4.37Y-5.045
X4.37Y-5.685
X4.385Y-2.135
X4.41Y-3.58
X4.415Y-4.57
X4.51Y-3.175
X4.52Y-5.575
X4.5475Y-3.2125
X4.56Y-4.92
X4.58Y-2.585
X4.58Y-3.99
X4.58Y-5.3
X4.5807Y-5.0374
X4.63Y-3.125
X4.65Y-5.54
X4.7037Y-3.3465
X4.705Y-4.465
X4.725Y-3.19
X4.725Y-4.145
X4.7431Y-3.7096
X4.745Y-2.84
X4.7725Y-3.2375
X4.8061Y-3.7096
X4.81Y-5.69
X4.875Y-3.57
X4.8878Y-2.0311
X4.8972Y-2.5382
X4.92Y-3.545
X4.92Y-3.79
X4.945Y-2.69
X4.9754Y-3.3957
X4.98Y-3.96
X5.045Y-3.765
X5.045Y-3.82
X5.061Y-3.0984
X5.085Y-3.24
X5.115Y-3.46
X5.12Y-3.625
X5.125Y-3.24
X5.125Y-4.08
X5.13Y-3.825
X5.1339Y-4.874
X5.135Y-4.44
X5.15Y-5.295
X5.15Y-5.43
X5.295Y-5.64
X5.3047Y-3.2961
X5.31Y-5.075
X5.34Y-3.475
X5.35Y-2.69
X5.355Y-3.415
X5.404Y-3.178
X5.445Y-4.15
X5.464Y-3.188
X5.49Y-5.105
X5.505Y-2.5
X5.51Y-2.055
X5.51Y-4.86
X5.515Y-5.245
X5.595Y-3.61
X5.595Y-4.66
X5.61Y-3.83
X5.62Y-5.72
X5.63Y-2.605
X5.65Y-2.72
X5.675Y-3.95
X5.685Y-5.13
X5.72Y-3.17
X5.72Y-3.44
X5.7205Y-3.3031
X5.74Y-5.63
X5.77Y-4.15
X5.78Y-3.6
X5.82Y-3.85
X5.8337Y-3.187
X5.8524Y-3.4213
X5.86Y-4.66
X5.875Y-2.99
X5.9478Y-3.1506
X5.985Y-2.605
X6.0075Y-3.1825
X6.035Y-3.155
X6.035Y-3.77
X6.035Y-5.475
X6.045Y-2.775
X6.05Y-3.25
X6.0827Y-3.5955
X6.09Y-4.66
X6.1078Y-2.8322
X6.1358Y-2.75
X6.1673Y-3.6654
X6.18Y-5.21
X6.1821Y-2.9311
X6.21Y-3.16
X6.225Y-3.42
X6.235Y-3.725
X6.2352Y-3.6102
X6.245Y-4.435
X6.313Y-3.438
X6.315Y-4.73
X6.3287Y-2.436
X6.335Y-5.725
X6.34Y-4.37
X6.37Y-2.73
X6.3927Y-3.0866
X6.415Y-2.86
X6.42Y-3.9
X6.4242Y-3.3012
X6.43Y-2.96
X6.445Y-5.04
X6.4843Y-4.7195
X6.485Y-2.49
X6.505Y-3.185
X6.525Y-4.12
X6.5342Y-3.9292
X6.545Y-4.895
X6.55Y-5.265
X6.56Y-2.67
X6.5709Y-3.4026
X6.5827Y-4.7461
X6.59Y-2.86
X6.59Y-2.965
X6.6Y-3.165
X6.6112Y-3.0463
X6.6142Y-3.6496
X6.6142Y-3.9469
X6.6791Y-4.5266
X6.7018Y-3.5935
X6.71Y-2.85
X6.71Y-4.22
X6.725Y-4.905
X6.73Y-2.035
X6.7333Y-3.9803
X6.75Y-2.565
X6.75Y-5.83
X6.805Y-2.785
X6.845Y-2.165
X6.845Y-2.405
X6.85Y-2.96
X6.8573Y-3.6496
X6.885Y-3.185
X6.8976Y-4.5266
X6.91Y-5.2
X6.9409Y-3.8996
X6.955Y-2.555
X6.96Y-4.255
X7.03Y-4.58
X7.04Y-2.255
X7.05Y-2.985
X7.085Y-3.19
X7.085Y-3.555
X7.095Y-5.765
X7.115Y-2.75
X7.145Y-2.205
X7.165Y-2.035
X7.18Y-3.105
X7.195Y-4.085
X7.2Y-3.625
X7.205Y-2.53
X7.205Y-2.825
X7.285Y-2.34
X7.315Y-2.53
X7.315Y-2.825
X7.325Y-4.84
X7.35Y-3.185
X7.35Y-4.085
X7.355Y-3.64
X7.37Y-5.535
T2
X4.5Y-3.57
T3
X3.77Y-2.65
X3.8487Y-2.65
X4.8889Y-3.225
X4.9065Y-2.9439
X4.9065Y-3.0226
X4.9676Y-3.225
X5.6374Y-3.015
X5.7161Y-3.015
X6.67Y-2.215
X6.73Y-2.48
X6.97Y-2.215
X7.03Y-2.48
X7.0404Y-3.849
X7.0404Y-4.149
X7.17Y-4.72
X7.17Y-5.02
T4
X4.1743Y-2.2382
X4.2143Y-2.3082
X4.2543Y-2.2382
X4.2943Y-2.3082
X4.3343Y-2.2382
X4.3743Y-2.3082
X4.4143Y-2.2382
X4.4543Y-2.3082
T5
X3.7498Y-2.8602
X3.7498Y-3.3602
X3.8Y-3.57
X3.8Y-3.67
X3.8Y-3.77
X3.8Y-3.87
X3.8Y-3.97
X3.8Y-4.07
X3.8Y-4.17
X3.8Y-4.27
X3.8Y-4.37
X3.8Y-4.47
X3.8Y-4.57
X3.8Y-4.67
X3.8Y-4.77
X3.8Y-4.87
X3.8Y-4.97
X3.8Y-5.07
X3.8Y-5.17
X3.8Y-5.27
X3.8Y-5.37
X3.8Y-5.47
X3.8498Y-2.8602
X3.8498Y-3.3602
X3.9498Y-2.8602
X3.9498Y-3.3602
X4.0498Y-2.8602
X4.0498Y-3.3602
X4.1498Y-2.8602
X4.1498Y-3.3602
X4.2498Y-2.8602
X4.2498Y-3.3602
X4.3498Y-2.8602
X4.3498Y-3.3602
X4.4498Y-2.8602
X4.4498Y-3.3602
X4.5Y-3.67
X4.5Y-3.77
X4.5Y-3.87
X4.5Y-3.97
X4.5Y-4.07
X4.5Y-4.17
X4.5Y-4.27
X4.5Y-4.37
X4.5Y-4.47
X4.5Y-4.57
X4.5Y-4.67
X4.5Y-4.77
X4.5Y-4.87
X4.5Y-4.97
X4.5Y-5.07
X4.5Y-5.17
X4.5Y-5.27
X4.5Y-5.37
X4.5Y-5.47
X4.925Y-5.5896
X4.925Y-5.6896
X5.025Y-5.5896
X5.025Y-5.6896
X5.125Y-5.5896
X5.125Y-5.6896
X5.225Y-5.5896
X5.225Y-5.6896
X5.37Y-3.805
X5.37Y-3.905
X5.37Y-4.005
X5.37Y-4.105
X5.37Y-4.205
X5.37Y-4.305
X5.37Y-4.405
X5.37Y-4.505
X5.37Y-4.605
X5.37Y-4.705
X5.8648Y-5.5896
X5.8648Y-5.6896
X5.9648Y-5.5896
X5.9648Y-5.6896
X6.0648Y-5.5896
X6.0648Y-5.6896
X6.17Y-3.805
X6.17Y-3.905
X6.17Y-4.005
X6.17Y-4.105
X6.17Y-4.205
X6.17Y-4.305
X6.17Y-4.405
X6.17Y-4.505
X6.17Y-4.605
X6.17Y-4.705
X6.6Y-5.59
X6.6Y-5.69
X6.7Y-5.59
X6.7Y-5.69
X6.8Y-5.59
X6.8Y-5.69
T6
X4.6609Y-2.7402
X4.7594Y-2.7402
X4.7923Y-4.3799
X4.8402Y-3.9306
X4.8402Y-4.0291
X4.8907Y-4.3799
X5.175Y-2.871
X5.275Y-2.871
X5.375Y-2.871
X6.9059Y-3.3666
X7.0044Y-3.3666
T7
X6.06Y-2.205
T8
X3.9943Y-2.2732
X4.6343Y-2.2732
T9
X5.9301Y-2.0751
X5.9301Y-2.3349
X6.1899Y-2.0751
X6.1899Y-2.3349
T0
M30
