M48
INCH,TZ
T1C0.0197
T2C0.0300
T3C0.0315
T4C0.0350
T5C0.0394
T6C0.0433
T7C0.0461
T8C0.0620
T9C0.0831
%
G90
G05
T1
X35700Y-29350
X35700Y-42400
X35800Y-48350
X36100Y-22400
X36200Y-55650
X37100Y-24900
X37200Y-23300
X37400Y-31300
X37950Y-30050
X38400Y-20400
X38450Y-34450
X38500Y-57950
X38800Y-45000
X38850Y-50750
X39100Y-27750
X39200Y-24650
X39350Y-30500
X39650Y-25250
X39800Y-40700
X40150Y-43700
X40750Y-26300
X40750Y-47150
X40950Y-44550
X41000Y-29600
X41000Y-35300
X41050Y-37600
X41100Y-55800
X41150Y-42000
X41300Y-48250
X41950Y-32200
X42250Y-37600
X42300Y-21350
X42700Y-46850
X42800Y-43600
X42850Y-29900
X43700Y-50450
X43700Y-56850
X43850Y-21350
X44100Y-35800
X44150Y-45700
X45100Y-31750
X45200Y-55750
X45475Y-32125
X45600Y-49200
X45800Y-25850
X45800Y-39900
X45800Y-51250
X45800Y-53000
X46300Y-31250
X46500Y-55400
X47050Y-44650
X47200Y-47300
X47250Y-31900
X47250Y-41450
X47450Y-28400
X47725Y-32375
X47800Y-33450
X47800Y-50250
X48100Y-56900
X48750Y-35700
X49200Y-35450
X49200Y-37900
X49450Y-26900
X49800Y-39600
X49950Y-48150
X50450Y-37650
X50450Y-38200
X50850Y-32400
X51150Y-34600
X51200Y-36250
X51250Y-32400
X51250Y-40800
X51300Y-38250
X51350Y-44400
X51500Y-49050
X51500Y-50700
X51500Y-52950
X51500Y-54300
X52950Y-56400
X53100Y-50750
X53400Y-34750
X53500Y-26900
X53550Y-34150
X54450Y-41500
X54900Y-51050
X55050Y-25000
X55100Y-20550
X55100Y-48600
X55150Y-52450
X55950Y-36100
X55950Y-46600
X56100Y-38300
X56200Y-57200
X56300Y-26050
X56500Y-27200
X56750Y-39500
X56850Y-51300
X57200Y-31700
X57200Y-34400
X57400Y-56300
X57700Y-41500
X57800Y-36000
X58200Y-38500
X58350Y-31700
X58450Y-34400
X58600Y-46600
X58750Y-29900
X59850Y-26050
X60075Y-31825
X60350Y-31550
X60350Y-37700
X60350Y-54750
X60450Y-27750
X60500Y-32500
X60550Y-34250
X60900Y-46600
X61000Y-36000
X61800Y-52100
X62100Y-31600
X62250Y-34200
X62350Y-36000
X62350Y-37250
X62450Y-44350
X63150Y-47300
X63350Y-57250
X63400Y-43700
X63700Y-27300
X64150Y-28600
X64200Y-39000
X64300Y-29600
X64450Y-50400
X64850Y-24900
X65050Y-31850
X65250Y-33650
X65250Y-41200
X65342Y-39292
X65450Y-48950
X65500Y-52650
X65600Y-26700
X65900Y-28600
X65900Y-29650
X66000Y-31650
X66600Y-44500
X67100Y-28500
X67100Y-42200
X67250Y-49050
X67300Y-20350
X67500Y-25650
X67500Y-58300
X68050Y-27850
X68050Y-44500
X68200Y-38400
X68450Y-21650
X68450Y-24050
X68500Y-29600
X68850Y-31850
X69100Y-52000
X69550Y-25550
X69600Y-42550
X70300Y-45800
X70400Y-22550
X70500Y-29850
X70850Y-31900
X70850Y-35550
X70950Y-57650
X71150Y-27500
X71450Y-22050
X71650Y-20350
X71800Y-31050
X71950Y-40850
X72000Y-36250
X72050Y-25300
X72050Y-28250
X72850Y-23400
X73150Y-25300
X73150Y-28250
X73250Y-48400
X73500Y-31850
X73500Y-40850
X73550Y-36400
X73700Y-55350
T2
X45000Y-35700
T3
X37700Y-26500
X38487Y-26500
X48889Y-32250
X49450Y-29439
X49450Y-30226
X49676Y-32250
X56374Y-30150
X57161Y-30150
X66096Y-45196
X66096Y-46196
X66096Y-47196
X66096Y-48196
X66142Y-36492
X66142Y-37492
X66142Y-38492
X66142Y-39492
X66700Y-22150
X67300Y-24800
X69096Y-45196
X69096Y-46196
X69096Y-47196
X69096Y-48196
X69142Y-36492
X69142Y-37492
X69142Y-38492
X69142Y-39492
X69700Y-22150
X70300Y-24800
X70442Y-39142
X70442Y-42142
X71700Y-47200
X71700Y-50200
T4
X41743Y-22382
X42143Y-23082
X42543Y-22382
X42943Y-23082
X43343Y-22382
X43743Y-23082
X44143Y-22382
X44543Y-23082
T5
X37500Y-28600
X37500Y-33600
X38000Y-35700
X38000Y-36700
X38000Y-37700
X38000Y-38700
X38000Y-39700
X38000Y-40700
X38000Y-41700
X38000Y-42700
X38000Y-43700
X38000Y-44700
X38000Y-45700
X38000Y-46700
X38000Y-47700
X38000Y-48700
X38000Y-49700
X38000Y-50700
X38000Y-51700
X38000Y-52700
X38000Y-53700
X38000Y-54700
X38500Y-28600
X38500Y-33600
X39500Y-28600
X39500Y-33600
X40500Y-28600
X40500Y-33600
X41500Y-28600
X41500Y-33600
X42500Y-28600
X42500Y-33600
X43500Y-28600
X43500Y-33600
X44500Y-28600
X44500Y-33600
X45000Y-36700
X45000Y-37700
X45000Y-38700
X45000Y-39700
X45000Y-40700
X45000Y-41700
X45000Y-42700
X45000Y-43700
X45000Y-44700
X45000Y-45700
X45000Y-46700
X45000Y-47700
X45000Y-48700
X45000Y-49700
X45000Y-50700
X45000Y-51700
X45000Y-52700
X45000Y-53700
X45000Y-54700
X47420Y-34100
X47420Y-37100
X48420Y-34100
X48420Y-37100
X49250Y-55896
X49250Y-56896
X49420Y-34100
X49420Y-37100
X50250Y-55896
X50250Y-56896
X51250Y-55896
X51250Y-56896
X52250Y-55896
X52250Y-56896
X53700Y-38050
X53700Y-39050
X53700Y-40050
X53700Y-41050
X53700Y-42050
X53700Y-43050
X53700Y-44050
X53700Y-45050
X53700Y-46050
X53700Y-47050
X58648Y-55896
X58648Y-56896
X59648Y-55896
X59648Y-56896
X60648Y-55896
X60648Y-56896
X61700Y-38050
X61700Y-39050
X61700Y-40050
X61700Y-41050
X61700Y-42050
X61700Y-43050
X61700Y-44050
X61700Y-45050
X61700Y-46050
X61700Y-47050
X66000Y-55900
X66000Y-56900
X67000Y-55900
X67000Y-56900
X68000Y-55900
X68000Y-56900
T6
X46609Y-27402
X47594Y-27402
X47964Y-44150
X48402Y-39306
X48402Y-40291
X48948Y-44150
X51750Y-28710
X52750Y-28710
X53750Y-28710
X69059Y-33666
X70044Y-33666
T7
X60600Y-22050
T8
X39943Y-22732
X46343Y-22732
T9
X59301Y-20751
X59301Y-23349
X61899Y-20751
X61899Y-23349
T0
M30
